<?xml version="1.0" standalone="no"?>
<!DOCTYPE svg PUBLIC "-//W3C//DTD SVG 20010904//EN"
 "http://www.w3.org/TR/2001/REC-SVG-20010904/DTD/svg10.dtd">
<svg version="1.0" xmlns="http://www.w3.org/2000/svg"
 width="1541.000000pt" height="1778.000000pt" viewBox="0 0 1541.000000 1778.000000"
 preserveAspectRatio="xMidYMid meet">

<linearGradient id="POgradient" gradientTransform="rotate(00)">
    <stop offset="0%" stop-color="#FF5D1A"  />
    <stop offset="100%" stop-color="#FF0BC550" />
</linearGradient>

<g transform="translate(150.000000,1778.000000) scale(0.100000,-0.100000)"
fill="url(#POgradient)" stroke="none">
<path d="M9041 14229 c-470 -45 -906 -298 -1241 -719 -138 -173 -285 -415
-366 -600 -78 -179 -216 -349 -340 -422 -101 -59 -175 -80 -301 -86 -200 -8
-354 28 -723 169 -299 114 -515 187 -637 214 -314 71 -547 52 -778 -65 -226
-114 -439 -338 -525 -553 -104 -259 -75 -550 86 -855 95 -182 205 -326 392
-516 296 -301 679 -570 1137 -798 692 -346 1387 -541 2195 -618 118 -11 458
-47 755 -80 993 -109 1366 -136 1770 -127 278 6 410 21 558 62 317 89 408 266
273 532 -58 114 -126 200 -318 399 -101 105 -207 221 -235 259 -207 277 -265
566 -183 913 11 45 26 95 34 110 7 15 39 99 69 188 146 426 181 822 106 1214
-73 377 -281 747 -553 982 -277 239 -573 366 -927 398 -125 11 -127 11 -248
-1z"/>
</g>

<g transform="translate(0.000000,1778.000000) scale(0.100000,-0.100000)"
fill="url(#POgradient)" stroke="none">
<path d="M8240 10690 c-161 -16 -270 -37 -385 -75 -231 -76 -430 -192 -579
-339 -306 -302 -502 -702 -880 -1798 -113 -330 -132 -369 -288 -599 -92 -137
-239 -311 -331 -391 -264 -233 -513 -328 -851 -328 -246 1 -406 31 -907 175
-646 186 -851 225 -1176 225 -250 0 -414 -29 -676 -120 -1134 -392 -1886
-1212 -2102 -2291 -44 -223 -58 -374 -59 -639 0 -339 32 -606 114 -933 361
-1439 1473 -2677 2928 -3258 286 -115 470 -169 772 -228 954 -186 1745 -69
2373 350 188 125 281 202 457 378 337 338 622 756 943 1381 122 238 174 331
246 435 353 513 910 955 1841 1465 124 67 513 269 865 448 1276 647 1617 843
2210 1272 191 137 258 192 379 310 308 299 519 663 596 1028 30 139 36 341 16
467 -93 562 -544 953 -1298 1124 -224 51 -453 139 -707 272 -285 150 -524 305
-1072 695 -184 131 -401 283 -484 338 -563 376 -1019 569 -1473 625 -124 16
-364 21 -472 11z"/>
</g>

<g transform="translate(0.000000,1778.000000) scale(0.100000,-0.100000)"
fill="url(#POgradient)" stroke="none">
<path d="M12445 8983 c-396 -51 -667 -208 -848 -488 -107 -167 -172 -321 -318
-752 -157 -465 -242 -632 -414 -812 -149 -157 -310 -257 -535 -332 -313 -104
-711 -64 -1075 110 -388 185 -778 542 -1190 1091 -183 244 -325 371 -520 465
-194 94 -410 128 -579 91 -363 -81 -541 -438 -470 -948 27 -196 61 -320 153
-557 99 -252 111 -289 143 -446 19 -92 23 -143 23 -305 0 -224 -9 -271 -77
-410 -58 -120 -176 -237 -304 -303 -327 -167 -847 -179 -1446 -31 -386 95
-847 50 -1169 -114 -218 -111 -405 -294 -506 -497 -121 -240 -147 -512 -65
-684 43 -91 155 -251 242 -344 280 -299 653 -437 1180 -437 288 0 491 24 1200
140 909 149 1026 157 1600 109 490 -41 834 -87 1840 -244 812 -127 1079 -164
1460 -204 866 -92 1766 -84 2319 20 703 132 1334 485 1706 954 82 103 237 337
289 435 190 361 278 832 247 1328 -34 566 -150 1023 -368 1451 -85 166 -222
378 -349 536 -184 231 -650 668 -899 844 -180 127 -476 251 -710 299 -177 37
-429 52 -560 35z"/>
</g>

<g transform="translate(0.000000,1778.000000) scale(0.100000,-0.100000)"
fill="url(#POgradient)" stroke="none">
<path d="M14370 16514 c-461 -57 -1054 -305 -1735 -726 -158 -98 -543 -357
-604 -407 -77 -63 -179 -191 -226 -286 -58 -117 -76 -185 -82 -320 -10 -211
41 -394 226 -813 142 -321 175 -408 207 -540 32 -130 36 -273 10 -371 -51
-198 -218 -377 -465 -501 -494 -247 -833 -627 -965 -1082 -86 -296 -72 -660
35 -951 193 -523 629 -937 1219 -1155 273 -102 383 -117 820 -116 326 0 433
10 672 58 926 188 1489 787 1558 1658 24 299 -37 650 -165 949 -89 207 -118
353 -117 589 0 119 6 198 21 285 45 259 86 392 369 1215 182 528 252 872 252
1240 0 299 -43 536 -145 804 -88 233 -255 387 -482 447 -77 21 -314 34 -403
23z"/>
</g>

<g transform="translate(0.000000,1778.000000) scale(0.100000,-0.100000)"
fill="url(#POgradient)" stroke="none">
<path d="M9695 17769 c-1364 -62 -2251 -512 -2397 -1219 -25 -120 -20 -338 11
-471 48 -209 121 -376 212 -486 411 -492 922 -731 1624 -761 316 -14 602 3
1205 73 566 65 624 69 970 70 357 0 445 -8 673 -66 415 -104 783 -375 942
-694 89 -177 112 -318 81 -494 -27 -154 -73 -270 -219 -561 -207 -408 -255
-538 -278 -739 -30 -273 85 -556 336 -819 108 -115 191 -163 417 -241 579
-199 1067 -86 1413 329 256 307 423 747 499 1315 56 419 47 977 -25 1465 -60
410 -218 1006 -307 1155 -177 298 -490 643 -807 890 -948 739 -2354 1199
-3832 1255 -280 10 -270 10 -518 -1z"/>
</g>
</svg>
