<?xml version="1.0" standalone="no"?>
<!DOCTYPE svg PUBLIC "-//W3C//DTD SVG 20010904//EN"
 "http://www.w3.org/TR/2001/REC-SVG-20010904/DTD/svg10.dtd">
<svg version="1.0" xmlns="http://www.w3.org/2000/svg"
 width="990.000000pt" height="556.000000pt" viewBox="0 0 990.000000 556.000000"
 preserveAspectRatio="xMidYMid meet">

<linearGradient id="POgradient" gradientTransform="rotate(90)">
    <stop offset="0%" stop-color="#FF5D1A" />
    <stop offset="100%" stop-color="#FF0BC5" />
</linearGradient>

<g transform="translate(0.000000,556.000000) scale(0.100000,-0.100000)"
fill="url(#POgradient)" stroke="none">
<path d="M1095 5551 l-440 -6 -84 -28 c-268 -91 -454 -285 -543 -567 l-23 -75
1 -982 c1 -1081 -3 -1008 61 -1050 24 -16 63 -18 368 -21 187 -2 584 -1 883 3
l542 7 7 27 c8 32 252 733 284 814 25 66 54 87 117 87 48 0 87 -28 101 -73 12
-40 45 -250 66 -427 19 -159 72 -521 78 -526 2 -2 20 108 41 244 181 1198 223
1462 238 1490 24 45 90 64 142 40 56 -25 47 19 186 -928 23 -157 57 -386 75
-510 18 -124 54 -367 80 -540 25 -173 61 -418 80 -545 19 -126 51 -345 71
-485 21 -140 40 -258 44 -262 3 -4 25 117 49 270 126 818 199 1274 213 1330
14 55 47 82 103 82 51 0 89 -27 104 -73 6 -17 27 -142 47 -277 19 -134 38
-249 42 -255 3 -5 23 98 43 230 34 218 40 242 62 261 22 19 42 21 192 27 93 4
874 7 1736 7 l1568 0 35 -31 c57 -50 57 -119 -1 -171 -17 -16 -135 -18 -1683
-25 l-1665 -8 -27 -185 c-62 -433 -129 -880 -142 -950 -12 -62 -20 -80 -47
-104 -28 -25 -38 -28 -81 -24 -57 6 -84 28 -98 77 -5 20 -25 151 -45 291 -20
140 -38 257 -41 259 -9 9 -11 -5 -159 -1034 -42 -286 -83 -547 -93 -579 -21
-72 -54 -101 -113 -100 -56 2 -95 41 -108 108 -6 28 -27 161 -46 296 -36 244
-79 534 -156 1052 -22 150 -55 379 -74 508 -19 129 -60 404 -90 610 -31 206
-67 453 -80 549 -14 96 -26 176 -28 178 -7 6 -36 -190 -223 -1476 -19 -135
-42 -257 -50 -273 -42 -81 -160 -79 -201 3 -11 22 -77 468 -169 1129 -14 107
-30 198 -33 203 -4 4 -45 -104 -90 -240 -82 -243 -95 -273 -136 -296 -14 -9
-279 -13 -960 -17 -874 -5 -943 -6 -968 -22 -14 -10 -32 -28 -38 -40 -9 -16
-12 -258 -13 -937 l-1 -916 33 -94 c102 -293 279 -468 562 -555 l85 -26 3455
2 3455 3 80 28 c273 93 455 276 537 537 l23 75 0 2135 c0 2398 8 2163 -75
2335 -88 184 -293 349 -515 417 l-70 21 -3020 2 c-1661 1 -3218 -1 -3460 -4z"/>
<path d="M9826 4808 c-26 -14 -628 -466 -906 -679 -118 -91 -255 -195 -305
-233 -114 -87 -141 -118 -162 -186 -17 -51 -18 -127 -16 -1069 2 -666 6 -1025
13 -1046 20 -61 99 -126 695 -571 585 -436 707 -524 726 -524 14 0 19 12 24
63 4 34 5 1002 3 2150 -3 1843 -5 2089 -18 2097 -19 12 -31 12 -54 -2z"/>
</g>
</svg>