<?xml version="1.0" standalone="no"?>
<!DOCTYPE svg PUBLIC "-//W3C//DTD SVG 20010904//EN"
 "http://www.w3.org/TR/2001/REC-SVG-20010904/DTD/svg10.dtd">
<svg version="1.0" xmlns="http://www.w3.org/2000/svg"
 width="3077.000000pt" height="556.000000pt" viewBox="0 0 3077.000000 556.000000"
 preserveAspectRatio="xMidYMid meet">

<linearGradient id="POgradient" gradientTransform="rotate(90)">
    <stop offset="0%" stop-color="#FF5D1A" />
    <stop offset="100%" stop-color="#FF0BC5" />
</linearGradient>

<g transform="translate(0.000000,556.000000) scale(0.100000,-0.100000)"
fill="url(#POgradient)" stroke="none">
<path d="M1095 5551 l-440 -6 -84 -28 c-268 -91 -454 -285 -543 -567 l-23 -75
1 -982 c1 -1081 -3 -1008 61 -1050 24 -16 63 -18 368 -21 187 -2 584 -1 883 3
l542 7 7 27 c8 32 252 733 284 814 25 66 54 87 117 87 48 0 87 -28 101 -73 12
-40 45 -250 66 -427 19 -159 72 -521 78 -526 2 -2 20 108 41 244 181 1198 223
1462 238 1490 24 45 90 64 142 40 56 -25 47 19 186 -928 23 -157 57 -386 75
-510 18 -124 54 -367 80 -540 25 -173 61 -418 80 -545 19 -126 51 -345 71
-485 21 -140 40 -258 44 -262 3 -4 25 117 49 270 126 818 199 1274 213 1330
14 55 47 82 103 82 51 0 89 -27 104 -73 6 -17 27 -142 47 -277 19 -134 38
-249 42 -255 3 -5 23 98 43 230 34 218 40 242 62 261 22 19 42 21 192 27 93 4
874 7 1736 7 l1568 0 35 -31 c57 -50 57 -119 -1 -171 -17 -16 -135 -18 -1683
-25 l-1665 -8 -27 -185 c-62 -433 -129 -880 -142 -950 -12 -62 -20 -80 -47
-104 -28 -25 -38 -28 -81 -24 -57 6 -84 28 -98 77 -5 20 -25 151 -45 291 -20
140 -38 257 -41 259 -9 9 -11 -5 -159 -1034 -42 -286 -83 -547 -93 -579 -21
-72 -54 -101 -113 -100 -56 2 -95 41 -108 108 -6 28 -27 161 -46 296 -36 244
-79 534 -156 1052 -22 150 -55 379 -74 508 -19 129 -60 404 -90 610 -31 206
-67 453 -80 549 -14 96 -26 176 -28 178 -7 6 -36 -190 -223 -1476 -19 -135
-42 -257 -50 -273 -42 -81 -160 -79 -201 3 -11 22 -77 468 -169 1129 -14 107
-30 198 -33 203 -4 4 -45 -104 -90 -240 -82 -243 -95 -273 -136 -296 -14 -9
-279 -13 -960 -17 -874 -5 -943 -6 -968 -22 -14 -10 -32 -28 -38 -40 -9 -16
-12 -258 -13 -937 l-1 -916 33 -94 c102 -293 279 -468 562 -555 l85 -26 3455
2 3455 3 80 28 c273 93 455 276 537 537 l23 75 0 2135 c0 2398 8 2163 -75
2335 -88 184 -293 349 -515 417 l-70 21 -3020 2 c-1661 1 -3218 -1 -3460 -4z"/>
<path d="M9826 4808 c-26 -14 -628 -466 -906 -679 -118 -91 -255 -195 -305
-233 -114 -87 -141 -118 -162 -186 -17 -51 -18 -127 -16 -1069 2 -666 6 -1025
13 -1046 20 -61 99 -126 695 -571 585 -436 707 -524 726 -524 14 0 19 12 24
63 4 34 5 1002 3 2150 -3 1843 -5 2089 -18 2097 -19 12 -31 12 -54 -2z"/>
<path d="M18350 3408 l0 -472 -47 45 c-192 184 -387 253 -640 228 -385 -38
-668 -306 -766 -723 -30 -131 -30 -410 1 -543 69 -300 230 -516 477 -641 180
-90 418 -111 606 -52 98 30 186 87 282 182 l87 86 0 -134 0 -134 275 0 275 0
0 1315 0 1315 -275 0 -275 0 0 -472z m-300 -687 c114 -43 221 -156 269 -286
11 -29 25 -89 31 -134 39 -285 -108 -544 -345 -606 -164 -42 -325 5 -442 127
-96 102 -143 231 -143 393 0 164 48 292 146 395 96 101 202 143 344 136 54 -2
105 -11 140 -25z"/>
<path d="M20415 3795 c-132 -23 -253 -63 -371 -120 -364 -177 -616 -514 -690
-925 -23 -126 -24 -363 -1 -486 84 -463 404 -839 836 -984 142 -48 216 -60
387 -67 314 -11 550 45 771 183 85 54 217 160 280 226 l33 34 -180 179 -179
179 -43 -40 c-116 -107 -255 -189 -383 -226 -67 -19 -103 -23 -225 -23 -132 0
-152 3 -226 28 -245 84 -416 275 -485 542 -32 122 -32 320 0 440 91 343 371
565 711 565 196 0 381 -72 562 -220 39 -32 75 -57 80 -54 4 3 85 94 179 202
l171 197 -54 48 c-179 160 -371 258 -603 309 -121 26 -453 34 -570 13z"/>
<path d="M11680 2510 l0 -1260 275 0 275 0 2 809 3 809 345 -524 c190 -288
350 -524 355 -524 6 0 168 240 360 532 l350 531 3 -816 2 -817 275 0 275 0 0
1260 0 1260 -298 0 -298 0 -244 -392 c-134 -216 -283 -455 -329 -530 -65 -104
-88 -135 -97 -125 -6 6 -129 203 -274 437 -145 234 -289 466 -321 515 l-56 90
-302 3 -301 2 0 -1260z"/>
<path d="M15513 3209 c-222 -21 -399 -105 -559 -264 -133 -133 -216 -279 -267
-468 -19 -71 -22 -107 -21 -277 0 -182 2 -201 27 -285 98 -325 308 -546 619
-650 127 -42 208 -55 361 -55 296 0 575 117 737 310 l40 48 -132 118 c-73 65
-143 126 -155 137 -21 19 -21 19 -88 -33 -133 -101 -243 -140 -400 -140 -232
0 -386 103 -456 307 -10 31 -19 58 -19 60 0 1 301 3 670 3 l669 0 7 37 c11 60
-3 281 -25 389 -89 434 -383 724 -771 759 -131 12 -157 12 -237 4z m240 -459
c128 -48 233 -188 253 -334 l7 -46 -407 0 -406 0 0 23 c1 34 43 146 74 195
103 163 299 229 479 162z"/>
<path d="M22855 3209 c-254 -21 -486 -130 -661 -311 -124 -127 -206 -274 -251
-448 -20 -77 -25 -121 -26 -230 -1 -185 26 -306 103 -460 145 -289 434 -493
769 -541 117 -16 334 -7 434 20 377 99 649 364 749 729 29 104 31 371 5 476
-44 176 -126 324 -251 454 -220 229 -529 340 -871 311z m236 -485 c164 -49
283 -165 341 -332 19 -55 23 -88 23 -187 0 -99 -4 -132 -23 -187 -26 -73 -83
-168 -128 -210 -116 -107 -310 -154 -469 -113 -136 36 -259 137 -322 265 -42
86 -55 146 -56 255 -1 244 123 431 331 502 83 28 220 31 303 7z"/>
<path d="M25430 3209 c-151 -17 -272 -80 -397 -206 l-83 -83 0 130 0 130 -275
0 -275 0 0 -965 0 -965 275 0 274 0 3 613 3 612 28 61 c34 74 84 125 152 156
40 18 68 22 140 23 79 0 97 -4 147 -28 93 -45 141 -118 164 -246 10 -58 13
-211 14 -633 l0 -558 269 0 270 0 3 593 3 592 24 68 c31 86 91 155 163 188 43
19 71 23 144 24 81 0 96 -3 149 -30 74 -38 118 -93 147 -188 23 -71 23 -77 22
-659 l0 -588 273 0 274 0 -3 718 c-3 703 -4 719 -25 795 -64 227 -207 373
-420 428 -108 28 -297 28 -404 0 -133 -34 -273 -117 -374 -220 -27 -28 -52
-51 -55 -51 -4 0 -24 25 -45 56 -118 171 -343 261 -585 233z"/>
<path d="M28850 3209 c-151 -17 -272 -80 -397 -206 l-83 -83 0 130 0 130 -275
0 -275 0 0 -965 0 -965 275 0 274 0 3 613 3 612 28 61 c34 74 84 125 152 156
40 18 68 22 140 23 79 0 97 -4 147 -28 93 -45 141 -118 164 -246 10 -58 13
-211 14 -633 l0 -558 269 0 270 0 3 593 3 592 24 68 c31 86 91 155 163 188 43
19 71 23 144 24 81 0 96 -3 149 -30 74 -38 118 -93 147 -188 23 -71 23 -77 22
-659 l0 -588 273 0 274 0 -3 718 c-3 703 -4 719 -25 795 -64 227 -207 373
-420 428 -108 28 -297 28 -404 0 -133 -34 -273 -117 -374 -220 -27 -28 -52
-51 -55 -51 -4 0 -24 25 -45 56 -118 171 -343 261 -585 233z"/>
</g>
</svg>